# xmcd
#
# Track frame offsets: 
#        150
#        11165
#        24192
#        38922
#        54290
#        68560
#        83902
#        97117
#        144832
#        155147
#        165930
#        193325
#        207020
#        225440
#        239877
#        252962
#        264597
#        276567
#        289425
#        304747
#        318500
#
# Disc length: 4444 seconds
#
# Revision: 0
# Processed by: cddbd v1.4PL0 Copyright (c) Steve Scherf et al.
# Submitted via: ExactAudioCopy v0.95a4
#
DISCID=2e115a15
DTITLE=Nat King Cole - Sweet Lorraine: 1939-1949
DYEAR=2002
DGENRE=Blues
TTITLE0=Straighten Up and Fly Right
TTITLE1=T Ain't What You Do
TTITLE2=That Ain't Right
TTITLE3=All for You
TTITLE4=Sweet Lorraine
TTITLE5=Embraceable You
TTITLE6=It's Only a Paper Moon
TTITLE7=The Blues
TTITLE8=Candy
TTITLE9=If You Can't Smile and Say Yes
TTITLE10=Kicks
TTITLE11=Route 66
TTITLE12=Peg O' My Heart
TTITLE13=The Christmas Song
TTITLE14=For Sentimental Reasons
TTITLE15=Rhumba Azul
TTITLE16=NatureBoy
TTITLE17=Dream a Little Dream of Me
TTITLE18=Leap Here
TTITLE19=For All We Know
TTITLE20=Lush Life
EXTD=
EXTT0=
EXTT1=
EXTT2=
EXTT3=
EXTT4=
EXTT5=
EXTT6=
EXTT7=
EXTT8=
EXTT9=
EXTT10=
EXTT11=
EXTT12=
EXTT13=
EXTT14=
EXTT15=
EXTT16=
EXTT17=
EXTT18=
EXTT19=
EXTT20=
PLAYORDER=
